<?xml version="1.0" standalone="no"?>
<!DOCTYPE svg PUBLIC "-//W3C//DTD SVG 20010904//EN"
 "http://www.w3.org/TR/2001/REC-SVG-20010904/DTD/svg10.dtd">
<svg version="1.0" xmlns="http://www.w3.org/2000/svg"
 width="700.000000pt" height="700.000000pt" viewBox="0 0 700.000000 700.000000"
 preserveAspectRatio="xMidYMid meet">
<metadata>
Created by potrace 1.14, written by Peter Selinger 2001-2017
</metadata>
<g transform="translate(0.000000,700.000000) scale(0.100000,-0.100000)"
fill="#000000" stroke="none">
<path d="M3278 6995 c-1 -1 -41 -6 -88 -9 -47 -4 -96 -8 -110 -10 -14 -2 -46
-7 -71 -10 -25 -4 -57 -9 -70 -11 -13 -2 -41 -6 -63 -9 -254 -38 -657 -172
-936 -310 -164 -82 -413 -232 -512 -310 -14 -12 -41 -32 -59 -46 -221 -167
-496 -443 -661 -665 -4 -5 -18 -23 -32 -40 -87 -110 -248 -379 -335 -560 -36
-75 -136 -316 -145 -350 -2 -5 -6 -17 -9 -25 -21 -56 -89 -296 -102 -362 -3
-16 -7 -38 -10 -50 -27 -127 -51 -279 -63 -412 -9 -104 -9 -530 1 -621 4 -38
9 -95 12 -125 3 -30 12 -94 21 -142 106 -626 360 -1183 758 -1665 153 -184
400 -420 581 -554 33 -24 62 -46 65 -50 8 -9 117 -81 210 -139 121 -75 325
-181 463 -240 157 -67 443 -162 557 -184 14 -3 36 -8 50 -11 23 -5 95 -20 145
-30 11 -3 36 -6 55 -9 70 -10 126 -18 150 -22 187 -30 697 -24 907 10 21 4 53
8 70 11 127 15 397 82 573 142 430 146 850 390 1189 691 128 115 153 142 141
157 -47 56 -578 575 -625 610 -134 100 -322 178 -490 203 -62 9 -273 9 -340 0
-63 -8 -206 -50 -288 -84 -146 -60 -362 -115 -517 -130 -92 -9 -314 -10 -395
-1 -303 32 -584 133 -840 302 -129 85 -169 118 -290 240 -116 115 -150 157
-237 284 -212 315 -318 683 -313 1080 4 278 64 525 190 786 147 302 356 543
644 739 194 133 487 249 718 286 197 32 453 34 618 5 158 -28 233 -49 425
-120 193 -72 267 -87 430 -91 253 -5 469 59 670 200 51 36 421 394 619 599
l33 35 -39 39 c-375 362 -818 631 -1318 801 -153 52 -413 116 -560 138 -27 4
-57 9 -65 10 -8 2 -44 6 -80 9 -36 4 -76 9 -90 12 -27 5 -536 14 -542 8z"/>
<path d="M3390 4074 c-124 -26 -185 -56 -277 -139 -221 -198 -258 -518 -88
-760 276 -392 881 -296 1025 162 27 85 32 206 12 293 -69 307 -371 507 -672
444z"/>
</g>
</svg>
